<svg width="588" height="270" viewBox="0 0 588 270" fill="none" xmlns="http://www.w3.org/2000/svg">
<path d="M54.1407 80.3202V84.2754C51.7968 89.1387 50.0097 92.9472 48.7794 95.7012C47.5488 98.3964 46.9335 100.242 46.9335 101.238C46.9335 102.937 47.9004 103.787 49.8339 103.787L67.1484 65.8185C71.1915 63.1815 76.6992 61.8633 83.6718 61.8633C90.7032 61.8633 96.7383 63.7968 101.777 67.6641C107.285 72 110.039 77.9181 110.039 85.4181C110.039 91.6875 107.9 97.869 103.623 103.963C99.3456 109.998 93.75 115.242 86.8359 119.695C83.6133 117.879 80.7129 116.971 78.1347 116.971C75.5565 116.971 74.2677 118.231 74.2677 120.75C76.9629 121.277 79.3944 122.039 81.5625 123.035C83.7891 123.973 86.3964 125.818 89.3847 128.572L112.764 150.106C111.064 169.09 101.572 178.582 84.2871 178.582C77.9004 178.582 72.4218 176.941 67.8516 173.66C62.4609 169.852 58.2423 164.051 55.1952 156.258L47.0214 135.867H46.5819C44.6484 135.867 43.6815 136.687 43.6815 138.328C43.6815 139.383 44.502 141.931 46.1427 145.975C47.7831 150.369 50.244 156.229 53.5254 163.553V170.32C47.373 175.828 38.4375 178.582 26.7188 178.582C20.3906 178.582 14.9707 177.146 10.459 174.275C5.36133 171.17 2.8125 166.746 2.8125 161.004V70.3008C8.84766 64.7931 18.0176 62.0391 30.3222 62.0391C36.7089 62.0391 42.129 63.3867 46.5819 66.0819C51.621 69.3048 54.1407 74.0508 54.1407 80.3202ZM136.582 177.088C130.078 177.088 125.039 175.359 121.465 171.902C117.949 168.445 116.192 163.231 116.192 156.258V70.3008C119.297 67.6641 123.076 65.6427 127.529 64.2363C132.041 62.7714 136.699 62.0391 141.504 62.0391C148.594 62.0391 154.6 63.7968 159.521 67.3125C164.854 71.2968 167.519 76.8048 167.519 83.8359V131.912C164.238 132.205 161.016 133.143 157.852 134.725C154.688 136.248 153.106 137.83 153.106 139.471C153.106 140.467 153.662 141.316 154.775 142.019C160.576 137.156 169.189 134.725 180.615 134.725H201.445C205.313 141.521 207.246 148.465 207.246 155.555C207.246 159.07 206.631 162.967 205.4 167.244C204.17 171.521 202.529 174.803 200.479 177.088H136.582ZM254.883 128.045V143.426C255.293 143.836 255.967 144.041 256.904 144.041C257.842 144.041 258.516 143.719 258.926 143.074C259.336 142.43 259.541 141.316 259.541 139.734V127.166C259.541 121.541 259.306 117.82 258.838 116.004C258.369 114.129 257.49 113.191 256.201 113.191C255.381 113.191 254.678 113.484 254.092 114.07C254.619 119.871 254.883 124.529 254.883 128.045ZM222.012 166.981C212.402 157.723 207.598 145.183 207.598 129.363C207.598 113.484 212.109 100.975 221.133 91.8339C230.215 82.6347 242.109 78.0351 256.817 78.0351C271.523 78.0351 283.418 82.8105 292.5 92.3613C301.524 101.912 306.036 114.363 306.036 129.715C306.036 145.008 301.671 157.166 292.94 166.189C284.268 175.213 272.461 179.725 257.519 179.725C242.578 179.725 230.742 175.477 222.012 166.981ZM352.44 134.021V136.131C352.44 137.127 352.47 137.83 352.53 138.24C353.232 138.533 353.907 138.68 354.552 138.68C356.25 138.68 357.099 137.537 357.099 135.252C357.099 129.275 357.804 118.025 359.208 101.502C359.97 92.5371 360.438 87.2637 360.615 85.6815C366.123 81.9903 372.714 80.1444 380.391 80.1444C388.125 80.1444 394.101 82.1952 398.319 86.2968C402.069 90.0468 403.944 94.9101 403.944 100.887C403.944 104.93 403.389 109.119 402.276 113.455C396.825 134.49 391.407 151.043 386.016 163.113C383.145 169.383 378.78 173.66 372.921 175.945C368.583 177.703 362.403 178.582 354.375 178.582C350.097 178.582 345.849 178.231 341.631 177.527C337.47 176.824 334.278 176.004 332.052 175.066C323.556 157.723 316.554 138.533 311.046 117.498C309.228 115.681 307.677 113.133 306.387 109.852C305.097 106.57 304.452 103.172 304.452 99.6564C304.452 92.3907 306.21 86.1504 309.726 80.9355C309.726 80.9355 317.022 80.9355 331.611 80.9355C339.288 80.9355 345 83.1036 348.75 87.4395C351.564 90.7206 353.379 95.496 354.198 101.766C353.028 112.664 352.44 123.416 352.44 134.021ZM457.47 179.725C441.24 179.725 428.436 175.213 419.064 166.189C409.452 157.107 404.649 144.685 404.649 128.924C404.649 113.104 409.599 100.564 419.502 91.3065C428.643 82.6935 440.214 78.3867 454.218 78.3867C468.222 78.3867 479.442 82.254 487.881 89.9883C496.377 97.6641 500.625 107.127 500.625 118.377C500.625 128.396 497.139 135.955 490.167 141.053C483.72 145.857 474.933 148.26 463.8 148.26C455.478 148.26 448.446 146.531 442.704 143.074C442.236 143.426 442.002 144.07 442.002 145.008C442.002 146.766 444.315 148.377 448.944 149.842C453.573 151.424 458.817 152.215 464.679 152.215C470.595 152.215 475.956 151.482 480.762 150.018C485.625 148.494 489.522 146.707 492.45 144.656C493.857 145.887 494.97 148.172 495.792 151.512C496.671 154.793 497.109 157.81 497.109 160.564C497.109 163.26 496.845 165.662 496.317 167.771C491.748 171.639 487.062 174.393 482.256 176.033C475.458 178.494 467.196 179.725 457.47 179.725ZM456.327 120.223C459.258 120.223 460.722 119.109 460.722 116.883C460.722 114.773 459.171 113.719 456.063 113.719C452.958 113.719 451.173 115.389 450.702 118.729C452.343 119.725 454.218 120.223 456.327 120.223ZM530.946 178.143C523.974 178.143 518.409 176.883 514.248 174.363C509.619 171.727 507.306 167.83 507.306 162.674V117.41C503.847 112.547 502.119 106.57 502.119 99.4806C502.119 92.3319 503.847 86.1504 507.306 80.9355H520.752C527.667 80.9355 532.617 83.1621 535.605 87.6153C534.141 89.256 532.851 91.3359 531.738 93.8556C530.625 96.375 530.067 98.1915 530.067 99.3048C530.067 100.359 530.331 101.15 530.859 101.678C531.444 102.205 532.266 102.469 533.319 102.469C535.371 94.3242 539.268 88.3476 545.01 84.5391C549.756 81.3165 555.615 79.7052 562.587 79.7052C571.26 79.7052 578.058 81.5508 582.978 85.2423C584.736 89.9298 585.615 95.6718 585.615 102.469C585.615 109.207 584.268 115.33 581.571 120.838C579.579 121.893 576.825 122.801 573.312 123.562C569.796 124.266 566.25 124.617 562.677 124.617C559.101 124.617 555.879 124.383 553.008 123.914C550.194 123.387 548.145 122.918 546.855 122.508C546.387 122.977 546.153 123.65 546.153 124.529C546.153 125.408 546.708 126.082 547.821 126.551C548.994 126.961 550.929 127.43 553.623 127.957V172.078C547.236 176.121 539.679 178.143 530.946 178.143Z" fill="white"/>
<path d="M29.1075 111.162C29.1075 111.162 32.1486 105.213 42.3756 105.472C51.4671 105.698 56.7297 106.972 62.6166 101.105L69.8946 124.796C63.0351 131.834 56.9958 132.049 47.2833 130.758C37.5708 129.47 31.4955 134.852 31.4955 134.852L29.1075 111.162Z" fill="white"/>
<path d="M43.383 122.368C41.2683 120.733 40.1751 117.213 41.4354 114.654C43.9509 109.531 53.202 111.261 55.5444 115.592C58.3266 120.737 53.7771 124.81 49.1961 124.428C47.8686 124.318 46.3605 123.985 45.1293 123.419C44.5104 123.133 43.9248 122.781 43.383 122.368Z" fill="#006CA2"/>
<mask id="mask0_220_456" style="mask-type:luminance" maskUnits="userSpaceOnUse" x="40" y="111" width="17" height="14">
<path d="M43.383 122.368C41.2683 120.733 40.1751 117.213 41.4354 114.654C43.9509 109.531 53.202 111.261 55.5444 115.592C58.3266 120.737 53.7771 124.81 49.1961 124.428C47.8686 124.318 46.3605 123.985 45.1293 123.419C44.5104 123.133 43.9248 122.781 43.383 122.368Z" fill="white"/>
</mask>
<g mask="url(#mask0_220_456)">
<path d="M56.1763 117.107C56.2261 117.287 56.2687 117.464 56.3041 117.641C56.3608 117.927 56.5951 118.769 56.3749 119.024C56.2864 118.932 56.2435 118.752 56.1655 118.635C56.0098 118.409 55.8961 118.164 55.7113 117.966C55.5055 117.747 55.3141 117.535 55.087 117.34C54.7996 117.099 54.4768 116.894 54.1288 116.721C53.6392 116.487 53.1034 116.349 52.5676 116.296C51.7549 116.219 50.9317 116.335 50.2501 116.639C49.555 116.958 49.1716 117.475 48.7528 118.016C48.5152 118.317 48.2596 118.649 47.9473 118.897C46.7407 119.842 44.3275 120.206 42.7378 119.251C42.2731 118.971 41.8684 118.575 41.5492 118.118C40.0693 116.003 41.5918 113.667 43.3801 112.538C44.2852 111.972 45.3709 111.6 46.528 111.459C48.1495 111.261 49.8067 111.512 51.3256 112.142C51.6556 112.28 51.9784 112.436 52.2943 112.609C53.2171 113.119 54.1216 113.533 54.8314 114.385C55.2895 114.934 55.6405 115.581 55.903 116.268C55.999 116.512 56.095 116.806 56.1763 117.107Z" fill="#E74600"/>
</g>
<path d="M33.0927 114.994C33.0252 115.015 32.9508 115.015 32.8866 114.991L32.6313 114.884C32.4963 114.831 32.3616 114.775 32.2266 114.722C32.1096 114.672 31.9605 114.64 31.9254 114.516C31.911 114.456 31.9254 114.407 31.9572 114.353C32.1063 114.099 32.2548 113.847 32.4042 113.589C32.6241 113.214 32.8443 112.846 33.0609 112.471C33.309 112.053 33.5502 111.639 33.795 111.222C34.0221 110.833 34.2531 110.444 34.4802 110.058C34.6467 109.771 34.8171 109.481 34.9875 109.198C35.0196 109.145 35.0547 109.028 35.1153 108.993C35.2428 108.918 35.4099 108.954 35.5341 109.003C35.6724 109.06 35.8146 109.113 35.9526 109.17C36.0555 109.212 36.1764 109.24 36.2616 109.311C36.4674 109.484 36.297 109.697 36.1974 109.867C36.0093 110.182 35.8212 110.504 35.6331 110.822C35.3955 111.226 35.1579 111.632 34.9167 112.04C34.6719 112.457 34.4268 112.874 34.1787 113.292C33.9726 113.646 33.7632 114 33.5541 114.353C33.4794 114.481 33.4014 114.612 33.327 114.739C33.2985 114.789 33.27 114.835 33.2379 114.884C33.2202 114.938 33.1599 114.976 33.0927 114.994ZM34.8456 115.691C34.7781 115.712 34.7037 115.712 34.6395 115.687C34.551 115.652 34.4694 115.62 34.3842 115.581C34.2492 115.528 34.1145 115.472 33.9798 115.419C33.8625 115.369 33.7101 115.337 33.6783 115.217C33.6639 115.153 33.6783 115.107 33.7101 115.051C33.8592 114.796 34.0116 114.545 34.1571 114.286C34.3773 113.915 34.5972 113.543 34.8138 113.168C35.0619 112.75 35.3034 112.337 35.5518 111.919C35.7789 111.53 36.0093 111.141 36.2364 110.755C36.4068 110.468 36.5739 110.178 36.744 109.895C36.7758 109.842 36.8115 109.725 36.8718 109.693C36.9996 109.619 37.1628 109.651 37.287 109.7C37.4253 109.757 37.5675 109.814 37.7055 109.87C37.8123 109.909 37.9293 109.941 38.0109 110.008C38.2164 110.182 38.0499 110.394 37.947 110.563C37.7622 110.879 37.5708 111.201 37.3827 111.519C37.1451 111.922 36.9072 112.33 36.6696 112.736C36.4248 113.154 36.1797 113.571 35.9313 113.989C35.7222 114.343 35.5161 114.697 35.307 115.051C35.2323 115.178 35.1579 115.309 35.0799 115.436C35.0514 115.486 35.0229 115.532 34.9947 115.581C34.9695 115.634 34.9128 115.677 34.8456 115.691ZM36.5949 116.395C36.5277 116.413 36.4497 116.417 36.3891 116.388C36.3039 116.353 36.2187 116.321 36.1335 116.286C35.9988 116.232 35.8641 116.176 35.7294 116.119C35.6121 116.073 35.4594 116.038 35.4276 115.918C35.4099 115.854 35.4276 115.808 35.4594 115.751C35.6085 115.496 35.7576 115.245 35.9064 114.987L36.5667 113.872L37.3014 112.619C37.5285 112.234 37.7589 111.841 37.9893 111.455C38.1564 111.169 38.3268 110.882 38.4969 110.596C38.5254 110.543 38.5644 110.426 38.625 110.394C38.7525 110.32 38.9157 110.351 39.0399 110.401C39.1782 110.458 39.3168 110.514 39.4587 110.571C39.5619 110.61 39.6858 110.642 39.7674 110.709C39.9699 110.882 39.8028 111.095 39.7038 111.265C39.519 111.583 39.3276 111.901 39.1395 112.22C38.9016 112.627 38.664 113.034 38.4261 113.437C38.1774 113.855 37.9326 114.272 37.6881 114.69C37.4784 115.047 37.2729 115.397 37.0635 115.751C36.9891 115.879 36.9144 116.01 36.8364 116.14C36.8115 116.19 36.783 116.236 36.7512 116.286C36.7191 116.339 36.6624 116.374 36.5949 116.395ZM41.2434 127.081C41.3148 127.085 41.3892 127.067 41.4423 127.028L41.6553 126.869L41.9889 126.621C42.0846 126.547 42.2232 126.48 42.2124 126.352C42.2088 126.292 42.177 126.246 42.1341 126.204C41.907 125.991 41.6799 125.783 41.4567 125.571L40.4664 124.647C40.0974 124.304 39.7284 123.957 39.3594 123.613C39.0153 123.295 38.6706 122.973 38.3268 122.651C38.0745 122.418 37.8228 122.177 37.5636 121.94C37.5177 121.894 37.4433 121.795 37.3758 121.774C37.23 121.731 37.0809 121.799 36.9783 121.88C36.861 121.965 36.744 122.05 36.6267 122.138C36.5415 122.205 36.4353 122.258 36.3786 122.347C36.2403 122.559 36.4635 122.725 36.6162 122.867C36.8967 123.129 37.1805 123.391 37.461 123.656C37.8192 123.992 38.1813 124.325 38.5398 124.661C38.9088 125.004 39.2778 125.351 39.6468 125.694C39.9591 125.988 40.2714 126.278 40.5873 126.568C40.7007 126.678 40.8144 126.781 40.9278 126.89C40.9701 126.929 41.0163 126.972 41.0553 127.01C41.1054 127.053 41.1726 127.078 41.2434 127.081ZM38.3232 129.233C38.394 129.24 38.4651 129.222 38.5182 129.18C38.5929 129.127 38.6601 129.073 38.7312 129.024C38.841 128.939 38.9511 128.854 39.0648 128.773C39.1605 128.699 39.2952 128.631 39.2886 128.504C39.2847 128.444 39.2562 128.401 39.2067 128.355C38.9868 128.143 38.7597 127.934 38.5326 127.725C38.2026 127.414 37.8726 127.11 37.5423 126.802C37.1733 126.459 36.8082 126.112 36.4353 125.769C36.0912 125.447 35.7468 125.128 35.4027 124.806C35.1471 124.569 34.8951 124.332 34.6395 124.095C34.59 124.052 34.5192 123.95 34.4481 123.929C34.3026 123.886 34.1535 123.957 34.0506 124.035C33.9336 124.12 33.8163 124.208 33.7029 124.293C33.6141 124.357 33.5112 124.413 33.4512 124.502C33.3126 124.714 33.5397 124.877 33.6888 125.022C33.9726 125.284 34.2531 125.549 34.5369 125.811C34.8951 126.147 35.2536 126.48 35.6121 126.816L36.723 127.849C37.0353 128.143 37.3476 128.433 37.6596 128.727C37.7733 128.833 37.8867 128.939 38.0037 129.045C38.0463 129.084 38.0889 129.127 38.1315 129.166C38.1846 129.205 38.2521 129.229 38.3232 129.233ZM37.5069 125.793C37.5603 125.74 37.617 125.694 37.6632 125.656C37.8156 125.514 38.0145 125.411 38.1954 125.305C38.3517 125.21 38.4507 125.21 38.5857 125.337C38.724 125.468 38.8662 125.599 39.0045 125.726L39.9945 126.65C40.2216 126.858 40.4451 127.071 40.6689 127.279C40.7184 127.326 40.7502 127.368 40.7502 127.432C40.7574 127.555 40.6227 127.627 40.527 127.697C40.4169 127.782 40.3032 127.864 40.1898 127.949L39.9765 128.108C39.927 128.143 39.8526 128.161 39.7818 128.157C39.7104 128.154 39.6432 128.132 39.597 128.09C39.5547 128.047 39.5118 128.008 39.4695 127.966L39.1287 127.648C38.8128 127.357 38.5041 127.064 38.1882 126.77C37.9503 126.547 37.6986 126.331 37.4715 126.105C37.3614 125.995 37.4181 125.889 37.5069 125.793ZM34.9167 123.423C34.9767 123.337 35.0799 123.281 35.1651 123.214C35.2818 123.129 35.3994 123.04 35.5161 122.956C35.6193 122.878 35.7645 122.81 35.9136 122.853C35.9847 122.871 36.0555 122.973 36.1053 123.019C36.3606 123.257 36.6129 123.493 36.8682 123.727C37.2123 124.049 37.5531 124.371 37.8975 124.689C37.9503 124.739 37.9647 124.753 37.9647 124.813C37.9719 124.966 37.7733 125.086 37.6488 125.178C37.4928 125.295 37.1772 125.595 36.9429 125.56C36.8328 125.542 36.7476 125.425 36.6801 125.362L36.0021 124.729C35.7183 124.467 35.4381 124.204 35.1543 123.939C35.0019 123.801 34.7748 123.638 34.9167 123.423ZM61.371 123.097C61.3074 123.058 61.2363 123.026 61.176 122.998C60.984 122.899 60.7608 122.846 60.555 122.786C60.3738 122.729 60.2781 122.75 60.1857 122.906C60.0972 123.062 60.0015 123.221 59.9091 123.376C59.6892 123.748 59.4726 124.123 59.2491 124.498C59.1 124.753 58.9512 125.004 58.8021 125.259C58.7736 125.312 58.7559 125.362 58.7736 125.425C58.8054 125.546 58.9578 125.581 59.0754 125.627C59.2101 125.68 59.3415 125.737 59.4762 125.793C59.5578 125.829 59.6463 125.861 59.7315 125.896C59.7957 125.921 59.8701 125.921 59.9376 125.903C60.0048 125.882 60.0618 125.846 60.0936 125.793C60.1218 125.748 60.1503 125.698 60.1752 125.648C60.2532 125.521 60.3279 125.394 60.4023 125.259C60.6117 124.905 60.8175 124.555 61.0269 124.201C61.1865 123.932 61.3533 123.663 61.5024 123.391C61.5768 123.253 61.4883 123.164 61.371 123.097ZM63.1098 120.217C63.0246 120.146 62.904 120.114 62.8011 120.075C62.6628 120.018 62.5209 119.962 62.3823 119.905C62.2581 119.856 62.0949 119.824 61.9671 119.898C61.9068 119.933 61.8678 120.047 61.8357 120.1C61.6653 120.386 61.4988 120.673 61.3287 120.96C61.1013 121.345 60.8706 121.738 60.6399 122.124C60.6045 122.181 60.594 122.198 60.615 122.258C60.6612 122.407 60.8883 122.474 61.0374 122.534C61.2255 122.612 61.6263 122.828 61.8396 122.74C61.9386 122.701 61.9848 122.566 62.031 122.488C62.1801 122.233 62.3328 121.983 62.478 121.724C62.6661 121.405 62.8542 121.088 63.039 120.769C63.1416 120.599 63.3087 120.39 63.1098 120.217ZM59.6214 122.396C59.5578 122.357 59.4867 122.326 59.4264 122.297C59.235 122.198 59.0148 122.145 58.8021 122.081C58.6209 122.028 58.5288 122.05 58.4364 122.205C58.344 122.361 58.2519 122.521 58.1595 122.676C57.9396 123.047 57.7233 123.419 57.4995 123.794L57.0525 124.559C57.0207 124.612 57.0063 124.661 57.024 124.721C57.0558 124.845 57.2085 124.877 57.3258 124.927L57.7266 125.089C57.8118 125.125 57.897 125.156 57.9822 125.195C58.0428 125.216 58.1208 125.216 58.188 125.199C58.2555 125.181 58.3155 125.146 58.344 125.093C58.3761 125.043 58.4007 124.997 58.4292 124.948C58.5036 124.82 58.5822 124.689 58.6563 124.562C58.866 124.208 59.0715 123.854 59.2809 123.5C59.4405 123.232 59.6076 122.966 59.7567 122.69C59.8239 122.556 59.7387 122.467 59.6214 122.396ZM61.3569 119.516C61.2753 119.449 61.1583 119.417 61.0518 119.374C60.9132 119.322 60.7713 119.265 60.6327 119.205C60.5124 119.155 60.3456 119.12 60.2142 119.197C60.1539 119.233 60.1185 119.346 60.0867 119.399C59.9163 119.683 59.7495 119.973 59.5791 120.259C59.352 120.648 59.1249 121.037 58.8942 121.423C58.8588 121.48 58.8516 121.498 58.8693 121.558C58.9155 121.706 59.1426 121.77 59.2917 121.834C59.4762 121.912 59.877 122.128 60.09 122.039C60.1929 121.996 60.2355 121.866 60.2817 121.788L60.7287 121.024C60.9168 120.705 61.1049 120.386 61.2897 120.068C61.3959 119.902 61.5591 119.69 61.3569 119.516ZM63.1203 123.794C63.0564 123.755 62.9856 123.723 62.9256 123.695C62.7336 123.596 62.5104 123.543 62.3043 123.483C62.1234 123.426 62.0277 123.448 61.9353 123.603C61.8429 123.759 61.7505 123.918 61.6587 124.077C61.4382 124.452 61.2222 124.82 60.9984 125.195C60.8493 125.45 60.7002 125.702 60.5478 125.956C60.5193 126.009 60.5052 126.062 60.5193 126.122C60.5514 126.243 60.7041 126.278 60.8211 126.328C60.9558 126.381 61.0908 126.437 61.2222 126.491C61.3107 126.526 61.3926 126.558 61.4778 126.593C61.5414 126.618 61.6158 126.618 61.6833 126.6C61.7505 126.579 61.8075 126.544 61.8396 126.491C61.8678 126.444 61.8963 126.395 61.9248 126.346C61.9992 126.218 62.0772 126.091 62.1519 125.956C62.3577 125.606 62.5671 125.252 62.7765 124.894C62.9361 124.626 63.1065 124.361 63.2517 124.084C63.3264 123.95 63.2379 123.862 63.1203 123.794ZM64.8558 120.917C64.7742 120.847 64.65 120.818 64.5504 120.776C64.4085 120.719 64.2705 120.663 64.1319 120.606C64.0077 120.556 63.8445 120.525 63.7167 120.596C63.6564 120.631 63.6207 120.748 63.5889 120.8C63.4188 121.084 63.2517 121.374 63.0813 121.657C62.8542 122.043 62.6271 122.436 62.3967 122.821C62.361 122.878 62.3538 122.899 62.3718 122.956C62.4144 123.108 62.6451 123.172 62.7942 123.235C62.9784 123.309 63.3798 123.529 63.5958 123.437C63.6954 123.394 63.7416 123.263 63.7839 123.185C63.933 122.931 64.0821 122.679 64.2348 122.421C64.4229 122.106 64.611 121.784 64.7991 121.466C64.8948 121.3 65.0616 121.087 64.8558 120.917ZM60.8922 112.634C60.9666 112.637 61.0374 112.619 61.0908 112.581L61.3035 112.421C61.4172 112.34 61.5273 112.255 61.6371 112.17C61.7367 112.099 61.8714 112.029 61.8642 111.905C61.8606 111.841 61.8288 111.799 61.7829 111.752C61.5558 111.54 61.332 111.335 61.1049 111.123C60.7785 110.815 60.4446 110.507 60.1149 110.199C59.7459 109.856 59.3769 109.509 59.0079 109.166C58.6635 108.848 58.3194 108.525 57.975 108.203C57.7194 107.966 57.4677 107.729 57.2121 107.496C57.1626 107.45 57.0948 107.348 57.024 107.33C56.8788 107.287 56.7297 107.354 56.6268 107.432C56.5098 107.521 56.3925 107.606 56.2755 107.69C56.1903 107.754 56.0838 107.814 56.0271 107.899C55.8885 108.112 56.1156 108.282 56.2647 108.419C56.5488 108.685 56.8287 108.947 57.1128 109.209C57.471 109.548 57.8295 109.881 58.1913 110.217C58.5606 110.563 58.9332 110.907 59.2986 111.25C59.6145 111.54 59.9232 111.834 60.2391 112.124C60.3561 112.23 60.4662 112.336 60.5832 112.443C60.6261 112.482 60.6684 112.524 60.7113 112.563C60.7569 112.606 60.8247 112.63 60.8922 112.634ZM57.7623 110.73C57.7125 110.78 57.6522 110.829 57.606 110.872C57.45 111.01 57.2547 111.113 57.0774 111.222C56.9211 111.317 56.8221 111.317 56.6835 111.186C56.5449 111.059 56.403 110.928 56.2647 110.797C55.9347 110.49 55.6047 110.182 55.2747 109.877C55.0476 109.669 54.8238 109.456 54.6006 109.244C54.5544 109.198 54.5226 109.155 54.5187 109.092C54.5115 108.968 54.6468 108.897 54.7425 108.826C54.8523 108.745 54.9657 108.66 55.0794 108.575C55.1472 108.525 55.2177 108.469 55.2924 108.419C55.3419 108.38 55.4166 108.363 55.4877 108.367C55.5585 108.373 55.626 108.395 55.6722 108.434C55.7148 108.469 55.7607 108.515 55.8 108.554C55.9134 108.66 56.0271 108.766 56.1441 108.872C56.4564 109.166 56.7687 109.456 57.081 109.75C57.3219 109.973 57.5706 110.189 57.7977 110.419C57.9075 110.532 57.8508 110.638 57.7623 110.73ZM60.3528 113.101C60.2961 113.186 60.1893 113.242 60.1041 113.309C59.9871 113.394 59.8701 113.483 59.7528 113.568C59.6499 113.646 59.5011 113.717 59.3553 113.674C59.2845 113.653 59.2134 113.55 59.1672 113.508C58.9116 113.267 58.6563 113.034 58.4046 112.796C58.0602 112.475 57.7161 112.156 57.372 111.834C57.3219 111.788 57.3045 111.77 57.3045 111.71C57.3009 111.554 57.4995 111.438 57.6204 111.342C57.7761 111.229 58.0923 110.925 58.3266 110.964C58.4364 110.981 58.5216 111.098 58.5927 111.162L59.2668 111.792C59.5506 112.053 59.8347 112.319 60.1149 112.581C60.2676 112.722 60.4947 112.888 60.3528 113.101ZM60.6828 108.579C60.6327 108.628 60.5727 108.678 60.5265 108.72C60.3705 108.858 60.1752 108.957 59.9943 109.067C59.838 109.163 59.7387 109.163 59.604 109.035C59.4654 108.905 59.3235 108.777 59.1849 108.646L58.1952 107.722C57.9714 107.51 57.7443 107.305 57.5208 107.093C57.4749 107.047 57.4428 107.004 57.4392 106.94C57.432 106.817 57.567 106.746 57.6627 106.675C57.7728 106.59 57.8865 106.509 57.9999 106.424L58.2129 106.265C58.266 106.229 58.3371 106.211 58.4079 106.215C58.479 106.219 58.5465 106.24 58.596 106.279C58.6389 106.317 58.6812 106.36 58.7241 106.402C58.8375 106.509 58.9512 106.615 59.0682 106.721C59.3802 107.011 59.6925 107.305 60.0084 107.595C60.246 107.822 60.498 108.038 60.7251 108.267C60.8283 108.38 60.7749 108.487 60.6828 108.579ZM63.2769 110.949C63.2163 111.034 63.1131 111.091 63.0246 111.155C62.9076 111.243 62.7903 111.328 62.6769 111.417C62.574 111.494 62.4285 111.562 62.2794 111.519C62.2119 111.502 62.1375 111.399 62.088 111.353C61.8357 111.116 61.5804 110.879 61.3248 110.645C60.9807 110.323 60.6366 110.001 60.2922 109.683C60.2391 109.633 60.2247 109.619 60.2247 109.559C60.2214 109.403 60.42 109.286 60.5409 109.191C60.6969 109.078 61.0125 108.773 61.2468 108.812C61.3569 108.83 61.4421 108.947 61.5096 109.01C61.7331 109.219 61.9602 109.428 62.1837 109.64C62.4675 109.902 62.748 110.164 63.0282 110.429C63.1878 110.571 63.4149 110.737 63.2769 110.949Z" fill="#2F2F2F"/>
<path d="M62.6166 101.102L69.8946 124.792C64.9905 129.824 60.5052 131.37 54.7953 131.37C52.521 131.37 50.0511 131.126 47.2833 130.758C46.2471 130.62 45.2499 130.56 44.2953 130.56C36.3396 130.56 31.4955 134.856 31.4955 134.856L29.1076 111.162C29.1076 111.162 32.0211 105.461 41.7366 105.461C41.9463 105.461 42.159 105.465 42.3756 105.469C45.4488 105.546 48.0816 105.741 50.4519 105.741C55.0971 105.745 58.7202 104.991 62.6166 101.102ZM62.6166 99C62.0628 99 61.5234 99.216 61.1259 99.6195C57.7338 103.002 54.7602 103.643 50.4558 103.643C49.1499 103.643 47.7162 103.579 46.1976 103.511C45.0015 103.459 43.7667 103.402 42.429 103.37C42.1947 103.363 41.9637 103.363 41.7405 103.363C30.8571 103.363 27.3721 109.927 27.2302 110.207C27.0469 110.566 26.9705 110.969 27.0102 111.371L29.3949 135.061C29.4339 135.446 29.5788 135.814 29.8139 136.122C30.0486 136.431 30.3645 136.668 30.7266 136.809C31.0884 136.95 31.4823 136.989 31.8648 136.921C32.247 136.853 32.6031 136.68 32.8938 136.423C32.9295 136.391 37.3047 132.658 44.2953 132.658C45.1896 132.658 46.1016 132.722 47.0028 132.842C50.2926 133.277 52.6947 133.472 54.792 133.472C61.5096 133.472 66.4773 131.314 71.4027 126.26C71.6664 125.99 71.8527 125.654 71.9412 125.288C72.03 124.921 72.018 124.537 71.9067 124.176L64.6287 100.486C64.5216 100.139 64.3266 99.8256 64.0626 99.5757C63.798 99.3258 63.4737 99.1482 63.1203 99.0603C62.9553 99.0201 62.7861 99 62.6166 99Z" fill="#2F2F2F"/>
<path d="M215.986 87.8043C215.504 99.9924 205.783 110.08 205.371 110.512C205.044 110.816 204.61 110.991 204.155 111C203.567 110.97 189.266 110.525 179.942 102.274C174.148 97.128 172.868 89.5938 174.908 85.3164C175.654 83.892 176.74 82.6587 178.077 81.7173C179.414 80.7756 180.964 80.1531 182.6 79.9005C185.929 79.3455 189.353 80.0526 192.153 81.8742C192.783 78.6693 194.68 75.825 197.444 73.941C198.782 73.0002 200.332 72.3783 201.967 72.1266C203.603 71.8746 205.277 72 206.853 72.4923C211.618 74.0379 216.291 80.2101 215.986 87.8043Z" fill="#C85153"/>
</svg>
