<svg width="1024" height="1024" viewBox="0 0 1024 1024" fill="none" xmlns="http://www.w3.org/2000/svg">
<g clip-path="url(#clip0_222_459)">
<path d="M393.809 423.407V432.094C388.665 442.775 384.744 451.14 382.044 457.188C379.343 463.108 377.993 467.162 377.993 469.349C377.993 473.081 380.115 474.947 384.358 474.947L422.353 391.557C431.226 385.765 443.312 382.87 458.613 382.87C474.043 382.87 487.287 387.117 498.345 395.61C510.431 405.133 516.475 418.131 516.475 434.603C516.475 448.373 511.781 461.949 502.395 475.333C493.008 488.588 480.729 500.106 465.557 509.886C458.485 505.897 452.12 503.902 446.462 503.902C440.805 503.902 437.976 506.669 437.976 512.203C443.891 513.361 449.227 515.034 453.984 517.222C458.871 519.281 464.592 523.335 471.15 529.383L522.454 576.676C518.725 618.372 497.895 639.219 459.963 639.219C445.948 639.219 433.926 635.616 423.897 628.409C412.067 620.044 402.809 607.304 396.123 590.188L378.186 545.405H377.221C372.978 545.405 370.857 547.206 370.857 550.81C370.857 553.126 372.657 558.724 376.258 567.603C379.857 577.255 385.258 590.124 392.459 606.21V621.074C378.957 633.171 359.349 639.219 333.633 639.219C319.746 639.219 307.852 636.066 297.952 629.76C286.765 622.94 281.172 613.224 281.172 600.612V401.401C294.416 389.305 314.539 383.256 341.54 383.256C355.556 383.256 367.45 386.216 377.221 392.135C388.279 399.214 393.809 409.637 393.809 423.407ZM574.721 635.938C560.449 635.938 549.391 632.141 541.548 624.549C533.833 616.956 529.976 605.503 529.976 590.188V401.401C536.79 395.61 545.084 391.171 554.856 388.082C564.757 384.865 574.979 383.256 585.523 383.256C601.08 383.256 614.26 387.117 625.061 394.838C636.762 403.589 642.612 415.686 642.612 431.128V536.718C635.412 537.362 628.34 539.421 621.397 542.895C614.453 546.241 610.982 549.716 610.982 553.319C610.982 555.507 612.203 557.373 614.646 558.917C627.376 548.236 646.277 542.895 671.35 542.895H717.06C725.547 557.823 729.79 573.073 729.79 588.644C729.79 596.365 728.44 604.924 725.74 614.317C723.039 623.712 719.44 630.919 714.939 635.938H574.721Z" fill="white"/>
<path d="M338.875 491.144C338.875 491.144 345.548 478.08 367.991 478.647C387.942 479.145 399.49 481.943 412.409 469.057L428.38 521.088C413.327 536.546 400.074 537.019 378.761 534.183C357.447 531.354 344.115 543.174 344.115 543.174L338.875 491.144Z" fill="white"/>
<path d="M370.202 515.756C365.561 512.166 363.162 504.434 365.928 498.815C371.448 487.562 391.749 491.362 396.889 500.874C402.994 512.174 393.011 521.119 382.958 520.28C380.045 520.039 376.736 519.308 374.034 518.065C372.676 517.438 371.391 516.664 370.202 515.756Z" fill="#006CA2"/>
<mask id="mask0_222_459" style="mask-type:luminance" maskUnits="userSpaceOnUse" x="364" y="491" width="35" height="30">
<path d="M370.202 515.756C365.561 512.166 363.162 504.434 365.928 498.815C371.448 487.562 391.749 491.362 396.889 500.874C402.994 512.174 393.011 521.119 382.958 520.28C380.045 520.039 376.736 519.308 374.034 518.065C372.676 517.438 371.391 516.664 370.202 515.756Z" fill="white"/>
</mask>
<g mask="url(#mask0_222_459)">
<path d="M398.276 504.201C398.385 504.597 398.478 504.985 398.556 505.374C398.68 506.003 399.195 507.853 398.711 508.412C398.517 508.21 398.423 507.814 398.252 507.558C397.91 507.06 397.661 506.524 397.255 506.089C396.804 505.607 396.383 505.141 395.885 504.714C395.254 504.185 394.546 503.734 393.782 503.353C392.708 502.84 391.532 502.538 390.356 502.421C388.573 502.25 386.767 502.506 385.271 503.174C383.745 503.874 382.904 505.009 381.985 506.198C381.464 506.858 380.903 507.589 380.217 508.133C377.57 510.208 372.274 511.008 368.785 508.91C367.766 508.296 366.878 507.425 366.177 506.423C362.93 501.776 366.271 496.647 370.195 494.168C372.181 492.924 374.564 492.107 377.103 491.797C380.661 491.362 384.298 491.914 387.631 493.297C388.355 493.6 389.063 493.942 389.757 494.323C391.782 495.442 393.767 496.351 395.324 498.224C396.329 499.429 397.1 500.851 397.676 502.358C397.886 502.895 398.097 503.54 398.276 504.201Z" fill="#E74600"/>
</g>
<path d="M347.62 499.561C347.472 499.607 347.309 499.607 347.168 499.553L346.608 499.319C346.311 499.204 346.016 499.079 345.719 498.962C345.463 498.854 345.136 498.783 345.059 498.511C345.027 498.379 345.059 498.271 345.128 498.154C345.455 497.595 345.781 497.042 346.109 496.475C346.592 495.651 347.075 494.843 347.55 494.02C348.095 493.102 348.624 492.193 349.161 491.276C349.66 490.421 350.167 489.567 350.665 488.719C351.03 488.089 351.404 487.453 351.778 486.831C351.849 486.714 351.926 486.458 352.059 486.38C352.338 486.217 352.705 486.295 352.978 486.403C353.281 486.528 353.593 486.644 353.896 486.769C354.122 486.862 354.387 486.924 354.574 487.08C355.026 487.46 354.652 487.927 354.433 488.3C354.02 488.991 353.608 489.698 353.195 490.398C352.673 491.284 352.152 492.178 351.623 493.071C351.086 493.988 350.548 494.905 350.003 495.823C349.551 496.6 349.091 497.377 348.633 498.154C348.469 498.434 348.298 498.721 348.134 499.001C348.072 499.11 348.009 499.211 347.939 499.319C347.9 499.436 347.768 499.522 347.62 499.561ZM351.467 501.092C351.319 501.138 351.155 501.138 351.014 501.083C350.82 501.006 350.641 500.936 350.454 500.851C350.158 500.735 349.862 500.61 349.567 500.494C349.309 500.385 348.975 500.314 348.905 500.051C348.874 499.911 348.905 499.81 348.975 499.685C349.302 499.126 349.637 498.574 349.956 498.006C350.439 497.191 350.922 496.374 351.397 495.55C351.941 494.633 352.471 493.724 353.016 492.807C353.515 491.952 354.02 491.098 354.519 490.251C354.893 489.621 355.259 488.984 355.633 488.362C355.702 488.246 355.781 487.989 355.913 487.919C356.194 487.755 356.552 487.826 356.824 487.935C357.128 488.059 357.44 488.183 357.743 488.307C357.977 488.393 358.234 488.462 358.413 488.611C358.864 488.991 358.498 489.457 358.273 489.83C357.867 490.523 357.447 491.23 357.034 491.929C356.513 492.814 355.991 493.709 355.469 494.603C354.932 495.52 354.394 496.436 353.849 497.353C353.39 498.131 352.938 498.908 352.479 499.685C352.315 499.965 352.152 500.252 351.981 500.533C351.918 500.641 351.856 500.742 351.794 500.851C351.739 500.967 351.614 501.06 351.467 501.092ZM355.305 502.638C355.158 502.677 354.987 502.685 354.854 502.623C354.667 502.545 354.48 502.476 354.293 502.397C353.997 502.281 353.702 502.156 353.406 502.032C353.149 501.931 352.814 501.854 352.744 501.589C352.705 501.449 352.744 501.348 352.814 501.224C353.141 500.664 353.468 500.113 353.795 499.545L355.244 497.097L356.856 494.346C357.354 493.498 357.86 492.636 358.365 491.789C358.732 491.16 359.106 490.53 359.479 489.901C359.542 489.784 359.627 489.528 359.76 489.457C360.04 489.295 360.398 489.364 360.671 489.473C360.974 489.598 361.279 489.721 361.59 489.846C361.816 489.932 362.088 490.002 362.267 490.15C362.712 490.53 362.345 490.996 362.128 491.37C361.722 492.068 361.302 492.768 360.889 493.468C360.367 494.361 359.846 495.255 359.324 496.141C358.778 497.058 358.241 497.975 357.704 498.893C357.244 499.678 356.793 500.447 356.334 501.224C356.171 501.504 356.007 501.792 355.835 502.078C355.781 502.188 355.718 502.289 355.648 502.397C355.578 502.514 355.454 502.592 355.305 502.638ZM365.506 526.109C365.663 526.116 365.826 526.077 365.943 525.991L366.41 525.641L367.142 525.098C367.352 524.934 367.656 524.787 367.633 524.507C367.625 524.375 367.555 524.274 367.461 524.181C366.963 523.714 366.464 523.256 365.974 522.79L363.801 520.762C362.992 520.008 362.182 519.246 361.372 518.492C360.617 517.793 359.86 517.086 359.106 516.378C358.552 515.866 358 515.337 357.431 514.816C357.331 514.715 357.167 514.498 357.019 514.451C356.699 514.358 356.372 514.506 356.147 514.684C355.889 514.871 355.633 515.058 355.375 515.251C355.188 515.399 354.955 515.516 354.831 515.71C354.527 516.176 355.017 516.542 355.352 516.852C355.968 517.428 356.591 518.003 357.206 518.585C357.992 519.324 358.787 520.055 359.573 520.792C360.383 521.546 361.193 522.308 362.003 523.062C362.688 523.707 363.373 524.344 364.067 524.982C364.315 525.222 364.565 525.448 364.814 525.689C364.907 525.775 365.008 525.867 365.094 525.952C365.204 526.046 365.351 526.101 365.506 526.109ZM359.098 530.833C359.253 530.849 359.41 530.81 359.526 530.717C359.69 530.601 359.837 530.484 359.993 530.375C360.234 530.188 360.476 530.002 360.726 529.823C360.936 529.66 361.231 529.512 361.217 529.233C361.208 529.1 361.146 529.007 361.037 528.906C360.554 528.44 360.056 527.981 359.558 527.523C358.833 526.839 358.109 526.171 357.384 525.494C356.575 524.741 355.774 523.979 354.955 523.225C354.2 522.518 353.444 521.819 352.689 521.112C352.128 520.591 351.575 520.07 351.014 519.549C350.906 519.456 350.75 519.23 350.594 519.184C350.275 519.09 349.948 519.246 349.722 519.417C349.465 519.603 349.208 519.798 348.959 519.984C348.764 520.124 348.538 520.248 348.407 520.443C348.103 520.909 348.601 521.266 348.928 521.585C349.551 522.16 350.167 522.744 350.789 523.318C351.575 524.057 352.362 524.787 353.149 525.525L355.587 527.795C356.272 528.44 356.957 529.077 357.642 529.722C357.891 529.956 358.14 530.188 358.397 530.422C358.49 530.507 358.584 530.601 358.677 530.686C358.794 530.772 358.942 530.826 359.098 530.833ZM357.307 523.279C357.424 523.163 357.548 523.062 357.65 522.976C357.984 522.666 358.421 522.44 358.818 522.207C359.161 521.998 359.378 521.998 359.674 522.277C359.978 522.564 360.29 522.852 360.593 523.132L362.766 525.16C363.264 525.618 363.755 526.085 364.246 526.543C364.354 526.645 364.424 526.738 364.424 526.878C364.44 527.15 364.144 527.305 363.934 527.461C363.693 527.647 363.443 527.826 363.194 528.013L362.726 528.363C362.618 528.44 362.454 528.479 362.299 528.471C362.142 528.463 361.995 528.416 361.893 528.323C361.801 528.23 361.706 528.145 361.614 528.052L360.866 527.352C360.173 526.714 359.495 526.07 358.802 525.425C358.28 524.934 357.727 524.461 357.229 523.963C356.988 523.723 357.112 523.49 357.307 523.279ZM351.623 518.072C351.754 517.886 351.981 517.762 352.168 517.614C352.424 517.428 352.682 517.233 352.938 517.047C353.165 516.876 353.483 516.728 353.81 516.822C353.966 516.86 354.122 517.086 354.231 517.186C354.791 517.708 355.345 518.228 355.905 518.74C356.66 519.449 357.408 520.156 358.164 520.855C358.28 520.964 358.311 520.994 358.311 521.127C358.327 521.461 357.891 521.725 357.618 521.927C357.276 522.184 356.583 522.844 356.069 522.767C355.828 522.728 355.641 522.471 355.492 522.332L354.005 520.941C353.382 520.365 352.767 519.79 352.144 519.207C351.81 518.904 351.311 518.547 351.623 518.072ZM409.675 517.358C409.536 517.272 409.38 517.202 409.247 517.14C408.826 516.922 408.336 516.806 407.885 516.674C407.487 516.549 407.277 516.596 407.074 516.938C406.88 517.28 406.67 517.63 406.467 517.971C405.985 518.788 405.509 519.611 405.019 520.435C404.692 520.994 404.365 521.546 404.038 522.106C403.975 522.222 403.937 522.332 403.975 522.471C404.045 522.735 404.38 522.814 404.638 522.914C404.933 523.03 405.222 523.155 405.517 523.279C405.696 523.357 405.89 523.428 406.077 523.505C406.218 523.559 406.382 523.559 406.53 523.52C406.677 523.474 406.802 523.396 406.872 523.279C406.934 523.179 406.996 523.069 407.051 522.961C407.222 522.682 407.386 522.401 407.549 522.106C408.009 521.328 408.461 520.559 408.92 519.783C409.27 519.192 409.636 518.601 409.964 518.003C410.127 517.699 409.933 517.505 409.675 517.358ZM413.491 511.031C413.304 510.876 413.039 510.807 412.814 510.72C412.51 510.596 412.199 510.472 411.894 510.347C411.622 510.239 411.264 510.169 410.983 510.332C410.851 510.409 410.765 510.658 410.695 510.775C410.321 511.404 409.956 512.034 409.582 512.663C409.083 513.511 408.577 514.374 408.071 515.22C407.993 515.345 407.97 515.383 408.016 515.516C408.118 515.842 408.616 515.99 408.943 516.122C409.356 516.292 410.235 516.767 410.704 516.572C410.921 516.487 411.022 516.192 411.124 516.021C411.451 515.461 411.786 514.91 412.104 514.342C412.517 513.642 412.93 512.943 413.336 512.244C413.561 511.871 413.927 511.413 413.491 511.031ZM405.836 515.819C405.696 515.733 405.54 515.663 405.408 515.601C404.988 515.383 404.505 515.267 404.038 515.127C403.64 515.01 403.438 515.058 403.235 515.399C403.033 515.742 402.831 516.091 402.628 516.433C402.145 517.249 401.671 518.065 401.179 518.889L400.199 520.567C400.129 520.684 400.097 520.792 400.136 520.925C400.206 521.197 400.541 521.266 400.798 521.376L401.678 521.733C401.865 521.811 402.052 521.881 402.239 521.966C402.372 522.012 402.543 522.012 402.69 521.973C402.838 521.935 402.97 521.857 403.033 521.741C403.103 521.632 403.157 521.531 403.22 521.422C403.383 521.142 403.555 520.855 403.718 520.575C404.178 519.798 404.629 519.021 405.089 518.243C405.439 517.653 405.806 517.07 406.133 516.464C406.28 516.168 406.093 515.974 405.836 515.819ZM409.644 509.493C409.465 509.345 409.208 509.275 408.975 509.182C408.671 509.066 408.359 508.941 408.055 508.809C407.791 508.7 407.425 508.622 407.137 508.793C407.004 508.871 406.927 509.12 406.857 509.236C406.483 509.858 406.117 510.496 405.743 511.125C405.245 511.979 404.746 512.834 404.24 513.681C404.162 513.806 404.147 513.845 404.185 513.977C404.287 514.303 404.785 514.443 405.112 514.583C405.517 514.754 406.397 515.228 406.864 515.034C407.09 514.94 407.183 514.653 407.285 514.482L408.266 512.804C408.679 512.104 409.091 511.404 409.497 510.705C409.73 510.34 410.088 509.874 409.644 509.493ZM413.514 518.889C413.374 518.803 413.218 518.733 413.087 518.671C412.665 518.454 412.176 518.337 411.723 518.205C411.326 518.081 411.116 518.127 410.914 518.469C410.711 518.811 410.508 519.161 410.307 519.51C409.823 520.334 409.349 521.142 408.858 521.966C408.53 522.526 408.203 523.078 407.869 523.637C407.806 523.753 407.775 523.87 407.806 524.002C407.877 524.266 408.212 524.344 408.469 524.453C408.764 524.57 409.06 524.694 409.349 524.81C409.543 524.888 409.723 524.958 409.91 525.036C410.049 525.091 410.212 525.091 410.361 525.052C410.508 525.005 410.633 524.927 410.704 524.81C410.765 524.709 410.828 524.6 410.891 524.492C411.054 524.212 411.225 523.932 411.389 523.637C411.84 522.868 412.3 522.091 412.76 521.305C413.11 520.715 413.484 520.132 413.802 519.526C413.966 519.23 413.772 519.037 413.514 518.889ZM417.322 512.57C417.143 512.415 416.871 512.352 416.652 512.259C416.341 512.136 416.038 512.011 415.734 511.886C415.461 511.777 415.103 511.707 414.823 511.863C414.69 511.941 414.612 512.197 414.542 512.313C414.169 512.935 413.802 513.573 413.428 514.195C412.93 515.042 412.432 515.904 411.926 516.751C411.848 516.876 411.832 516.922 411.871 517.047C411.965 517.381 412.471 517.521 412.798 517.66C413.203 517.824 414.083 518.305 414.557 518.104C414.776 518.01 414.877 517.722 414.97 517.552C415.297 516.992 415.625 516.44 415.96 515.873C416.372 515.182 416.785 514.475 417.198 513.775C417.408 513.409 417.774 512.943 417.322 512.57ZM408.625 494.377C408.788 494.384 408.943 494.346 409.06 494.261L409.527 493.911C409.777 493.732 410.018 493.546 410.259 493.359C410.478 493.204 410.773 493.048 410.758 492.777C410.75 492.636 410.68 492.543 410.579 492.441C410.081 491.976 409.59 491.525 409.091 491.059C408.375 490.382 407.642 489.706 406.919 489.03C406.109 488.276 405.299 487.515 404.49 486.76C403.734 486.062 402.979 485.354 402.223 484.647C401.662 484.126 401.11 483.606 400.549 483.092C400.44 482.992 400.291 482.767 400.136 482.728C399.817 482.634 399.49 482.781 399.264 482.953C399.008 483.147 398.75 483.334 398.493 483.52C398.306 483.66 398.073 483.792 397.948 483.979C397.644 484.445 398.143 484.819 398.47 485.121C399.093 485.704 399.707 486.279 400.331 486.855C401.117 487.6 401.904 488.331 402.698 489.069C403.508 489.83 404.326 490.585 405.127 491.338C405.821 491.976 406.498 492.621 407.191 493.258C407.448 493.491 407.69 493.724 407.946 493.957C408.041 494.043 408.133 494.136 408.228 494.221C408.328 494.315 408.476 494.369 408.625 494.377ZM401.756 490.196C401.647 490.305 401.515 490.414 401.413 490.507C401.071 490.81 400.642 491.036 400.253 491.276C399.91 491.486 399.693 491.486 399.389 491.198C399.085 490.919 398.773 490.631 398.47 490.343C397.746 489.668 397.021 488.991 396.297 488.323C395.799 487.865 395.308 487.398 394.818 486.932C394.717 486.831 394.647 486.737 394.638 486.597C394.622 486.326 394.919 486.171 395.129 486.015C395.37 485.837 395.619 485.65 395.869 485.463C396.017 485.354 396.172 485.23 396.336 485.121C396.445 485.035 396.609 484.997 396.765 485.005C396.92 485.02 397.068 485.067 397.17 485.153C397.263 485.23 397.364 485.331 397.45 485.416C397.699 485.65 397.948 485.883 398.205 486.116C398.89 486.76 399.576 487.398 400.261 488.043C400.79 488.533 401.335 489.007 401.834 489.512C402.075 489.761 401.95 489.994 401.756 490.196ZM407.441 495.402C407.316 495.589 407.082 495.713 406.895 495.861C406.638 496.047 406.382 496.242 406.124 496.429C405.898 496.6 405.572 496.756 405.252 496.662C405.097 496.615 404.941 496.39 404.839 496.297C404.278 495.768 403.718 495.255 403.166 494.734C402.41 494.027 401.655 493.328 400.9 492.621C400.79 492.52 400.752 492.48 400.752 492.348C400.744 492.006 401.179 491.75 401.445 491.541C401.786 491.292 402.48 490.623 402.994 490.709C403.235 490.748 403.422 491.004 403.578 491.144L405.058 492.528C405.68 493.102 406.304 493.685 406.919 494.261C407.254 494.571 407.752 494.937 407.441 495.402ZM408.165 485.471C408.055 485.58 407.923 485.689 407.822 485.781C407.48 486.085 407.051 486.302 406.654 486.544C406.311 486.753 406.093 486.753 405.798 486.473C405.494 486.186 405.182 485.906 404.878 485.619L402.706 483.59C402.215 483.124 401.717 482.673 401.226 482.207C401.125 482.106 401.055 482.012 401.047 481.872C401.031 481.6 401.328 481.445 401.538 481.29C401.779 481.103 402.029 480.925 402.278 480.738L402.745 480.388C402.861 480.311 403.018 480.272 403.173 480.28C403.329 480.287 403.477 480.334 403.586 480.419C403.68 480.504 403.773 480.598 403.867 480.691C404.116 480.925 404.365 481.158 404.622 481.39C405.307 482.028 405.992 482.673 406.685 483.31C407.206 483.808 407.759 484.282 408.258 484.787C408.484 485.035 408.367 485.269 408.165 485.471ZM413.858 490.678C413.725 490.864 413.498 490.988 413.304 491.128C413.047 491.323 412.79 491.509 412.541 491.704C412.315 491.875 411.996 492.022 411.669 491.929C411.521 491.891 411.357 491.665 411.249 491.564C410.695 491.043 410.135 490.523 409.574 490.009C408.819 489.302 408.064 488.595 407.308 487.896C407.191 487.787 407.16 487.755 407.16 487.624C407.153 487.281 407.588 487.025 407.854 486.815C408.196 486.567 408.889 485.899 409.403 485.984C409.644 486.023 409.831 486.279 409.979 486.419C410.47 486.878 410.968 487.336 411.459 487.803C412.081 488.377 412.697 488.953 413.312 489.535C413.662 489.846 414.16 490.212 413.858 490.678Z" fill="#2F2F2F"/>
<path d="M412.409 469.05L428.38 521.08C417.618 532.132 407.775 535.528 395.245 535.528C390.254 535.528 384.834 534.992 378.761 534.183C376.487 533.88 374.298 533.748 372.204 533.748C354.745 533.748 344.115 543.183 344.115 543.183L338.875 491.144C338.875 491.144 345.269 478.625 366.589 478.625C367.049 478.625 367.516 478.632 367.991 478.64C374.735 478.811 380.512 479.238 385.714 479.238C395.908 479.246 403.858 477.591 412.409 469.05ZM412.409 464.433C411.193 464.433 410.01 464.908 409.137 465.794C401.694 473.223 395.168 474.63 385.722 474.63C382.857 474.63 379.711 474.489 376.378 474.342C373.753 474.226 371.044 474.102 368.108 474.031C367.594 474.016 367.087 474.016 366.597 474.016C342.714 474.016 335.067 488.432 334.755 489.046C334.353 489.835 334.185 490.722 334.272 491.603L339.505 543.634C339.591 544.48 339.909 545.287 340.425 545.964C340.94 546.642 341.633 547.164 342.428 547.474C343.222 547.783 344.086 547.868 344.926 547.718C345.764 547.569 346.546 547.19 347.184 546.626C347.262 546.556 356.863 538.357 372.204 538.357C374.166 538.357 376.167 538.496 378.145 538.761C385.364 539.717 390.636 540.144 395.238 540.144C409.979 540.144 420.881 535.404 431.689 524.305C432.268 523.712 432.677 522.974 432.871 522.168C433.066 521.363 433.04 520.519 432.795 519.728L416.824 467.698C416.589 466.935 416.161 466.247 415.582 465.698C415.001 465.149 414.29 464.759 413.514 464.566C413.152 464.477 412.781 464.433 412.409 464.433Z" fill="#2F2F2F"/>
<path d="M748.969 439.844C747.912 466.613 726.58 488.769 725.675 489.717C724.958 490.386 724.005 490.768 723.008 490.789C721.717 490.723 690.334 489.746 669.874 471.624C657.159 460.322 654.349 443.774 658.825 434.38C660.462 431.252 662.846 428.543 665.78 426.475C668.715 424.407 672.116 423.04 675.705 422.485C683.011 421.266 690.524 422.819 696.67 426.82C698.052 419.781 702.215 413.534 708.281 409.396C711.217 407.33 714.618 405.964 718.206 405.411C721.796 404.858 725.47 405.133 728.927 406.215C739.384 409.609 749.639 423.165 748.969 439.844Z" fill="#C85153"/>
</g>
<defs>
<clipPath id="clip0_222_459">
<rect width="474" height="593" fill="white" transform="translate(275 247)"/>
</clipPath>
</defs>
</svg>
